<svg width="220" height="438" viewBox="0 0 220 438" fill="none" xmlns="http://www.w3.org/2000/svg">
<path d="M219.41 183.74H105.12V298.03H219.41V183.74Z" fill="#DC85B7"/>
<path d="M133.69 269.46V222.59C133.69 217.54 131.68 212.69 128.11 209.12L105.12 186.13V298.04H217.03L194.04 275.05C190.47 271.48 185.62 269.47 180.57 269.47H133.7L133.69 269.46Z" fill="#EDE7E0"/>
<path d="M107.5 183.74L130.49 206.73C134.06 210.3 138.91 212.31 143.96 212.31H190.83V259.18C190.83 264.23 192.84 269.08 196.41 272.65L219.4 295.64V183.73H107.49L107.5 183.74Z" fill="#FFF8EE"/>
<path d="M176 237.75L181.12 252.79C181.44 253.74 180.58 255.3 179.62 255.61L153.42 264.53C152.46 264.92 150.76 264.21 150.42 263.23L145.57 248.97C147.16 248.88 148.55 248.24 149.64 247.1C149.72 247.02 150.05 246.56 150.08 246.55L175.99 237.73L176 237.75Z" fill="#FFF8EE"/>
<path d="M143.54 238.43C147.23 236.95 151.17 240.21 150.4 244.13C149.69 247.75 145.43 249.45 142.43 247.28C139.17 244.92 139.83 239.91 143.54 238.42V238.43Z" fill="#FFF8EE"/>
<path d="M167.08 235.57L164.48 240.89L164.23 241.02L158.86 242.85C158.86 242.85 158.79 242.83 158.77 242.88L158.74 242.79L161.33 237.52L167.07 235.57H167.08Z" fill="#FFF8EE"/>
<path d="M160.4 237.84L157.77 243.18C156.01 243.8 154.23 244.49 152.44 245.03C152.34 245.06 152.23 245.09 152.13 245.11C152.09 245.11 152.08 245.21 152.05 245.09L154.66 239.79L160.4 237.84Z" fill="#FFF8EE"/>
<path d="M173.8 233.28L171.19 238.59C171.11 238.65 171.01 238.7 170.92 238.75C169.35 239.44 167.46 239.81 165.85 240.48L165.46 240.54L168.07 235.24L173.81 233.29L173.8 233.28Z" fill="#FFF8EE"/>
<path d="M167 219.18L166.54 225.11L161.93 229.04L162.41 223.1L167 219.18Z" fill="#FFF8EE"/>
<path d="M161.61 223.79L161.14 229.72L156.54 233.65L157.02 227.69L161.61 223.79Z" fill="#FFF8EE"/>
<path d="M151.18 238.25L151.64 232.28L156.24 228.35L155.76 234.31L151.18 238.25Z" fill="#FFF8EE"/>
<path d="M150.84 232.96L150.4 238.83C150.4 238.96 149.82 239.43 149.78 239.41C148.94 238.33 147.59 237.62 146.24 237.44V236.89L150.85 232.95L150.84 232.96Z" fill="#FFF8EE"/>
<path d="M175.78 237.09L172.27 238.29C172.27 238.29 172.2 238.27 172.18 238.32L172.15 238.23L174.53 233.42L175.78 237.09Z" fill="#FFF8EE"/>
<path d="M170.25 221.97L167.33 224.43L167.77 219.06L170.25 221.97Z" fill="#FFF8EE"/>
<path d="M153.67 240.13L151.07 245.45L150.69 245.62C150.61 245.52 150.77 245.33 150.82 245.21C151.3 243.87 151.33 242.44 150.83 241.09L153.67 240.12V240.13Z" fill="#FFF8EE"/>
<path d="M105.02 183.74H0.679932V298.03H105.02V183.74Z" fill="#FFF8EE"/>
<mask id="mask0_258_867" style="mask-type:luminance" maskUnits="userSpaceOnUse" x="0" y="183" width="106" height="116">
<path d="M105.02 183.74H0.679932V298.03H105.02V183.74Z" fill="white"/>
</mask>
<g mask="url(#mask0_258_867)">
<path d="M111.29 183.74H-5.58008V301.48H111.29V183.74Z" fill="#8552A0"/>
<path d="M23.6399 272.05V223.76C23.6399 218.56 21.5899 213.56 17.9299 209.88L-5.58008 186.19V301.48H108.86L85.3499 277.79C81.6999 274.11 76.7399 272.04 71.5799 272.04H23.6499L23.6399 272.05Z" fill="#FFC70F"/>
<path d="M-3.15016 183.74L20.3598 207.43C24.0098 211.11 28.9699 213.18 34.1299 213.18H82.0598V261.47C82.0598 266.67 84.1098 271.67 87.7698 275.35L111.28 299.04V183.75H-3.16016L-3.15016 183.74Z" fill="#FFC70F"/>
</g>
<path d="M66.9401 238.22L71.8701 252.71C72.1801 253.63 71.3501 255.13 70.4201 255.43L45.1701 264.02C44.2401 264.39 42.6001 263.71 42.2801 262.77L37.6001 249.03C39.1301 248.95 40.4701 248.33 41.5301 247.23C41.6101 247.15 41.9201 246.71 41.9501 246.7L66.9201 238.2L66.9401 238.22Z" fill="#FFF8EE"/>
<path d="M35.6601 238.88C39.2201 237.46 43.01 240.6 42.27 244.38C41.59 247.87 37.4801 249.51 34.5901 247.42C31.4501 245.15 32.0801 240.32 35.6601 238.89V238.88Z" fill="#FFF8EE"/>
<path d="M58.3401 236.13L55.8401 241.26L55.6 241.39L50.42 243.15C50.42 243.15 50.3501 243.13 50.3401 243.18L50.3101 243.1L52.8101 238.02L58.3401 236.14V236.13Z" fill="#FFF8EE"/>
<path d="M51.9101 238.32L49.3701 243.46C47.6701 244.06 45.9601 244.72 44.2401 245.25C44.1401 245.28 44.0401 245.3 43.9401 245.33C43.9101 245.33 43.8901 245.43 43.8601 245.31L46.3701 240.21L51.9001 238.33L51.9101 238.32Z" fill="#FFF8EE"/>
<path d="M64.82 233.92L62.3 239.04C62.22 239.1 62.13 239.15 62.04 239.19C60.52 239.85 58.7 240.21 57.16 240.85L56.78 240.91L59.29 235.81L64.82 233.93V233.92Z" fill="#FFF8EE"/>
<path d="M58.2701 220.33L57.8201 226.04L53.3801 229.83L53.8401 224.1L58.2701 220.33Z" fill="#FFF8EE"/>
<path d="M53.0699 224.78L52.6199 230.49L48.1799 234.28L48.6499 228.53L53.0699 224.78Z" fill="#FFF8EE"/>
<path d="M43.03 238.71L43.46 232.95L47.9 229.17L47.44 234.91L43.03 238.71Z" fill="#FFF8EE"/>
<path d="M42.7 233.61L42.27 239.27C42.27 239.4 41.71 239.85 41.67 239.83C40.86 238.79 39.56 238.11 38.26 237.94V237.41L42.7 233.61Z" fill="#FFF8EE"/>
<path d="M66.73 237.59L63.34 238.74C63.34 238.74 63.27 238.72 63.26 238.77L63.23 238.69L65.53 234.06L66.73 237.59Z" fill="#FFF8EE"/>
<path d="M61.3901 223.02L58.5801 225.39L59.0101 220.22L61.3901 223.02Z" fill="#FFF8EE"/>
<path d="M45.4299 240.52L42.9299 245.65L42.5599 245.82C42.4799 245.72 42.6399 245.54 42.6799 245.42C43.1399 244.12 43.1699 242.75 42.6899 241.45L45.4299 240.52Z" fill="#FFF8EE"/>
<path d="M105.03 298.03H0V412.22H105.03V298.03Z" fill="#8552A0"/>
<path d="M74.06 344.97V332.6C74.06 332.53 73.82 331.95 73.73 331.89L35.24 331.8L34.75 332.1L34.66 380.71L34.93 381.23L73.66 381.31C74.02 380.99 74.02 380.57 74.06 380.13C74.52 375.03 73.69 369.26 74.06 364.09L78.01 358.83V381.7C78.01 382.76 76 385.06 74.84 385.26C61.74 385.96 48.49 385.36 35.33 385.57C32.36 385.31 30.75 383.41 30.49 380.51V332.99C30.57 330.28 32.09 328 34.93 327.74H73.75C79.8 328.6 77.71 335.73 77.89 340.02L74.04 344.98L74.06 344.97Z" fill="#FFC70F"/>
<path d="M79.5399 341.05C80.1799 340.93 84.7399 344.64 85.4599 345.37L85.4099 345.7L67.4499 369.73C66.7099 370.33 65.7599 370.73 64.8999 371.14C64.3199 371.42 60.9099 372.94 60.6099 372.8C60.4599 372.73 60.2999 372.52 60.2499 372.35C59.8899 371.16 61.0999 366.91 61.1499 365.41L79.5399 341.04V341.05Z" fill="#FFC70F"/>
<path d="M42.1299 339.27L66.2499 339.22C68.3499 339.69 68.4899 342.29 66.4799 343.04L42.8699 343.19C40.6299 343.02 39.8699 340.18 42.1199 339.27H42.1299Z" fill="#FFC70F"/>
<path d="M42.1301 349.57L66.2501 349.52C68.1101 349.74 68.5201 352.27 66.8901 353.14L41.8001 353.19C40.3601 352.19 40.4201 350.22 42.1301 349.57Z" fill="#FFC70F"/>
<path d="M62.4801 359.82C62.4801 359.82 62.9601 359.44 62.9701 359.92C62.9701 360.1 61.0501 362.62 60.7901 362.88C60.6001 363.08 60.4401 363.32 60.2001 363.48L42.1301 363.54C40.9301 363.11 40.4301 361.88 41.0201 360.74C41.1401 360.51 41.9001 359.82 42.0801 359.82C48.8701 359.82 55.6901 359.95 62.4701 359.82H62.4801Z" fill="#FFC70F"/>
<path d="M42.53 369.97C46.26 370.18 50.69 369.51 54.34 369.95C56.98 370.26 57.61 372.86 55.14 373.88C51.24 373.47 46.03 374.47 42.29 373.88C40.21 373.55 40.29 370.38 42.52 369.98L42.53 369.97Z" fill="#FFC70F"/>
<path d="M82.9201 337.29C84.4401 336.94 85.9701 338.03 87.0301 339.04C88.8001 340.72 88.1501 342.41 86.6201 343.98L80.6101 339.51C81.0101 338.71 82.0301 337.5 82.9201 337.3V337.29Z" fill="#FFC70F"/>
<path d="M219.9 298.03H105.12V438H219.9V298.03Z" fill="#CCC6D2"/>
<path d="M140.68 334.61C150.13 333.47 158.12 338.26 163.03 346.06L168.47 339.95C185.06 326.01 207.14 340.62 203.69 361.31C201.73 373.06 191.05 382.99 182.83 390.93C176.46 397.09 169.62 402.81 163.31 409.04C156.81 403.05 150.08 397.23 143.72 391.09C133.67 381.38 121.13 369.82 122.27 354.45C122.95 345.36 131.5 335.7 140.69 334.59L140.68 334.61Z" fill="#DC85B7"/>
<path d="M128.82 57.96H73.0801V110.53H128.82V57.96Z" fill="#8552A0"/>
<path d="M91.87 65.7099L108.48 82.3499L108.7 82.82L110.39 91.3299C110.26 92.1899 109.81 92.33 109.01 92.25C106.37 91.97 103.54 90.9699 100.87 90.6499L100.51 90.4699L83.58 73.5399C83.25 73.0199 83.38 72.69 83.73 72.25L90.43 65.5499C90.67 65.3799 90.95 65.2899 91.25 65.3399C91.48 65.3799 91.71 65.55 91.88 65.7L91.87 65.7099ZM106.74 84.01C106 84.58 105.14 85.6199 104.46 86.2999C103.65 87.1099 102.83 87.9199 102.02 88.7299V88.88L106.16 89.68L107.73 88.2L106.96 83.8999C106.83 83.8699 106.81 83.95 106.73 84.01H106.74Z" fill="#FFFAF3"/>
<path d="M87.92 101.38C88.19 101.13 88.36 100.41 88.54 100.06C90.51 96.3098 95.07 94.9698 99.09 95.2398C103.95 95.5598 106.46 99.4298 110.71 100.82C112.88 101.53 116.2 101.63 117.04 98.9698C117.93 96.1398 115.41 93.8998 113.05 92.9198C112.42 92.6598 111.68 92.2698 111.19 92.9598C110.31 94.2198 112.14 94.5898 112.89 94.9798C114.25 95.6998 116.39 97.4598 114.73 99.0098C113.97 99.7198 112.89 99.4898 111.99 99.2398C108.72 98.3198 106.47 95.7198 103.37 94.3898C99.18 92.5998 94.18 92.9098 90.31 95.3598C88.78 96.3298 86.67 98.6598 86.29 100.47C86.07 101.53 87.31 101.97 87.92 101.38Z" fill="#FFFAF3"/>
<path d="M176.43 57.96H128V110.62H176.43V57.96Z" fill="#DC85B7"/>
<path d="M150.95 81.5901L142.49 66.9302C142.35 67.0102 142.2 67.0902 142.06 67.1802L150.52 81.8401C150.66 81.7501 150.8 81.6601 150.95 81.5901Z" fill="#FFC70F"/>
<path d="M151.44 81.41L145.65 65.5C145.49 65.55 145.34 65.61 145.18 65.67L150.97 81.58C151.12 81.51 151.28 81.45 151.44 81.41Z" fill="#FFC70F"/>
<path d="M151.95 81.3199L149.01 64.6499C148.85 64.6799 148.68 64.7099 148.52 64.7399L151.46 81.4099C151.62 81.3699 151.78 81.3399 151.95 81.3199Z" fill="#FFC70F"/>
<path d="M152.98 81.4099L155.92 64.7399C155.76 64.7099 155.59 64.6799 155.43 64.6499L152.49 81.3199C152.66 81.3399 152.82 81.3699 152.98 81.4099Z" fill="#FFC70F"/>
<path d="M150.1 82.1901L137.14 71.3101C137.03 71.4401 136.92 71.5601 136.82 71.6901L149.79 82.5701C149.89 82.4301 149.99 82.3101 150.11 82.1901H150.1Z" fill="#FFC70F"/>
<path d="M149.51 83.04L133.6 77.25C133.54 77.4 133.49 77.56 133.43 77.72L149.34 83.51C149.38 83.35 149.44 83.19 149.51 83.04Z" fill="#FFC70F"/>
<path d="M149.77 82.5898L135.11 74.1299C135.03 74.2699 134.94 74.4199 134.86 74.5599L149.52 83.0198C149.59 82.8698 149.67 82.7198 149.77 82.5898Z" fill="#FFC70F"/>
<path d="M154.32 82.1701L165.2 69.2101C165.07 69.1001 164.95 68.9901 164.82 68.8901L153.94 81.8601C154.08 81.9601 154.2 82.0601 154.32 82.1801V82.1701Z" fill="#FFC70F"/>
<path d="M155.1 83.51L171.01 77.72C170.96 77.56 170.9 77.41 170.84 77.25L154.93 83.04C155 83.19 155.06 83.35 155.1 83.51Z" fill="#FFC70F"/>
<path d="M153.47 81.58L159.26 65.67C159.1 65.61 158.95 65.56 158.79 65.5L153 81.41C153.16 81.45 153.32 81.51 153.47 81.58Z" fill="#FFC70F"/>
<path d="M154.92 83.0198L169.58 74.5599C169.5 74.4199 169.42 74.2699 169.33 74.1299L154.67 82.5898C154.76 82.7298 154.85 82.8698 154.92 83.0198Z" fill="#FFC70F"/>
<path d="M155.19 84.0198L171.86 81.0798C171.83 80.9198 171.8 80.7498 171.77 80.5898L155.1 83.5298C155.14 83.6898 155.17 83.8498 155.19 84.0198Z" fill="#FFC70F"/>
<path d="M154.66 82.5701L167.63 71.6901C167.52 71.5601 167.42 71.4401 167.31 71.3101L154.35 82.1901C154.47 82.3101 154.57 82.4401 154.67 82.5701H154.66Z" fill="#FFC70F"/>
<path d="M153.92 81.8401L162.38 67.1802C162.24 67.1002 162.09 67.0102 161.95 66.9302L153.49 81.5901C153.64 81.6601 153.78 81.7401 153.92 81.8401Z" fill="#FFC70F"/>
<path d="M149.33 83.5298L132.66 80.5898C132.63 80.7498 132.6 80.9198 132.57 81.0798L149.24 84.0198C149.26 83.8498 149.29 83.6898 149.33 83.5298Z" fill="#FFC70F"/>
<path d="M152.49 87.2599L155.43 103.93C155.59 103.9 155.76 103.87 155.92 103.84L152.98 87.1699C152.82 87.2099 152.66 87.2399 152.49 87.2599Z" fill="#FFC70F"/>
<path d="M153.49 86.9897L161.95 101.65C162.09 101.57 162.24 101.49 162.38 101.4L153.92 86.7397C153.78 86.8297 153.64 86.9197 153.49 86.9897Z" fill="#FFC70F"/>
<path d="M153.94 86.7299L164.82 99.7C164.95 99.59 165.07 99.4899 165.2 99.3799L154.32 86.4199C154.2 86.5399 154.07 86.6399 153.94 86.7399V86.7299Z" fill="#FFC70F"/>
<path d="M154.34 86.4L167.3 97.28C167.41 97.15 167.52 97.03 167.62 96.9L154.65 86.02C154.55 86.16 154.45 86.28 154.33 86.4H154.34Z" fill="#FFC70F"/>
<path d="M153 87.17L158.79 103.08C158.95 103.03 159.1 102.97 159.26 102.91L153.47 87C153.32 87.07 153.16 87.13 153 87.17Z" fill="#FFC70F"/>
<path d="M155.2 84.29C155.2 84.37 155.2 84.46 155.19 84.54H172.12C172.12 84.46 172.12 84.37 172.12 84.29C172.12 84.21 172.12 84.12 172.12 84.04H155.19C155.19 84.12 155.2 84.2 155.2 84.29Z" fill="#FFC70F"/>
<path d="M155.1 85.05L171.77 87.9901C171.8 87.8301 171.83 87.6601 171.86 87.5001L155.19 84.5601C155.17 84.7301 155.15 84.89 155.1 85.05Z" fill="#FFC70F"/>
<path d="M154.67 85.9998L169.33 94.4598C169.41 94.3198 169.5 94.1698 169.58 94.0298L154.92 85.5698C154.85 85.7198 154.77 85.8598 154.67 85.9998Z" fill="#FFC70F"/>
<path d="M154.93 85.5398L170.84 91.3298C170.9 91.1698 170.95 91.0198 171.01 90.8598L155.1 85.0698C155.06 85.2298 155 85.3898 154.93 85.5398Z" fill="#FFC70F"/>
<path d="M150.12 86.4099L139.24 99.3699C139.37 99.4799 139.49 99.5899 139.62 99.6899L150.5 86.7199C150.36 86.6199 150.24 86.5199 150.12 86.3999V86.4099Z" fill="#FFC70F"/>
<path d="M149.52 85.5601L134.86 94.02C134.94 94.16 135.02 94.3101 135.11 94.4501L149.77 85.9901C149.68 85.8501 149.59 85.7101 149.52 85.5601Z" fill="#FFC70F"/>
<path d="M149.78 86.0103L136.81 96.8903C136.92 97.0203 137.02 97.1402 137.13 97.2702L150.09 86.3903C149.97 86.2703 149.87 86.1403 149.77 86.0103H149.78Z" fill="#FFC70F"/>
<path d="M149.34 85.0801L133.43 90.8701C133.48 91.0301 133.54 91.1801 133.6 91.3401L149.51 85.5501C149.44 85.4001 149.38 85.2401 149.34 85.0801Z" fill="#FFC70F"/>
<path d="M149.25 84.5601L132.58 87.5001C132.61 87.6601 132.64 87.8301 132.67 87.9901L149.34 85.05C149.3 84.89 149.27 84.7301 149.25 84.5601Z" fill="#FFC70F"/>
<path d="M151.46 87.1802L148.52 103.85C148.68 103.88 148.85 103.91 149.01 103.94L151.95 87.2701C151.78 87.2501 151.62 87.2302 151.46 87.1802Z" fill="#FFC70F"/>
<path d="M150.97 87L145.18 102.91C145.33 102.97 145.49 103.02 145.65 103.08L151.44 87.17C151.28 87.13 151.12 87.07 150.97 87Z" fill="#FFC70F"/>
<path d="M150.52 86.7397L142.06 101.4C142.2 101.48 142.35 101.57 142.49 101.65L150.95 86.9897C150.8 86.9197 150.66 86.8397 150.52 86.7397Z" fill="#FFC70F"/>
<path d="M150.5 81.8601L139.62 68.8901C139.49 69.0001 139.37 69.1001 139.24 69.2101L150.12 82.1701C150.24 82.0501 150.37 81.9501 150.5 81.8501V81.8601Z" fill="#FFC70F"/>
<path d="M152.22 81.3101C152.3 81.3101 152.39 81.3101 152.47 81.3201V64.3901C152.39 64.3901 152.3 64.3901 152.22 64.3901C152.14 64.3901 152.05 64.3901 151.97 64.3901V81.3201C152.05 81.3201 152.13 81.3101 152.22 81.3101Z" fill="#FFC70F"/>
<path d="M152.22 87.28C152.14 87.28 152.05 87.28 151.97 87.27V104.2C152.05 104.2 152.14 104.2 152.22 104.2C152.3 104.2 152.39 104.2 152.47 104.2V87.27C152.39 87.27 152.31 87.28 152.22 87.28Z" fill="#FFC70F"/>
<path d="M149.23 84.29C149.23 84.21 149.23 84.12 149.24 84.04H132.31C132.31 84.12 132.31 84.21 132.31 84.29C132.31 84.37 132.31 84.46 132.31 84.54H149.24C149.24 84.46 149.23 84.38 149.23 84.29Z" fill="#FFC70F"/>
<path d="M127.99 0H73.1399V58.02H127.99V0Z" fill="#CCC6D2"/>
<path d="M91.2998 13.6898C95.1998 13.2198 98.4998 15.1998 100.52 18.4198L102.76 15.8998C109.61 10.1498 118.72 16.1798 117.3 24.7198C116.49 29.5698 112.08 33.6698 108.69 36.9398C106.06 39.4798 103.24 41.8398 100.63 44.4198C97.9498 41.9498 95.1698 39.5398 92.5498 37.0098C88.3998 32.9998 83.2298 28.2298 83.6998 21.8898C83.9798 18.1398 87.5098 14.1498 91.2998 13.6998V13.6898Z" fill="#DC85B7"/>
<path d="M73.23 110.54H0V183.77H73.23V110.54Z" fill="#3A1D5A"/>
<path d="M45.3601 140.22V132.89C45.3601 132.89 45.2201 132.51 45.1701 132.47L22.3801 132.42L22.0901 132.6L22.0401 161.38L22.2001 161.69L45.1301 161.74C45.3401 161.55 45.3501 161.3 45.3701 161.04C45.6401 158.02 45.1501 154.61 45.3701 151.54L47.7101 148.43V161.97C47.7101 162.6 46.5201 163.96 45.8301 164.08C38.0801 164.49 30.2301 164.14 22.4401 164.26C20.6801 164.11 19.7301 162.98 19.5701 161.26V133.12C19.6201 131.51 20.5201 130.17 22.2001 130.01H45.1901C48.7701 130.52 47.5301 134.74 47.6401 137.28L45.3601 140.22Z" fill="#FFC70F"/>
<path d="M48.5999 137.9C48.9799 137.83 51.6799 140.03 52.0999 140.46L52.0699 140.66L41.4299 154.89C40.9899 155.25 40.4299 155.48 39.9199 155.73C39.5799 155.9 37.5599 156.8 37.3799 156.71C37.2899 156.67 37.1999 156.54 37.1699 156.44C36.9599 155.74 37.6699 153.22 37.6999 152.33L48.5899 137.9H48.5999Z" fill="#FFC70F"/>
<path d="M26.4499 136.85L40.7299 136.82C41.9699 137.1 42.0599 138.64 40.8699 139.08L26.8899 139.17C25.5599 139.07 25.1099 137.39 26.4499 136.85Z" fill="#FFC70F"/>
<path d="M26.4499 142.94L40.7299 142.91C41.8299 143.04 42.0699 144.54 41.1099 145.05L26.2499 145.08C25.3999 144.49 25.4299 143.32 26.4499 142.94Z" fill="#FFC70F"/>
<path d="M38.5 149.01C38.5 149.01 38.79 148.78 38.79 149.07C38.79 149.18 37.65 150.67 37.5 150.83C37.39 150.95 37.29 151.09 37.15 151.18L26.45 151.22C25.74 150.97 25.44 150.24 25.8 149.56C25.87 149.42 26.32 149.02 26.43 149.02C30.45 149.02 34.49 149.1 38.51 149.02L38.5 149.01Z" fill="#FFC70F"/>
<path d="M26.6899 155.02C28.8999 155.15 31.5199 154.75 33.6799 155.01C35.2399 155.2 35.6099 156.73 34.1599 157.34C31.8499 157.1 28.7699 157.69 26.5499 157.34C25.3199 157.14 25.3699 155.27 26.6899 155.03V155.02Z" fill="#FFC70F"/>
<path d="M50.6 135.67C51.5 135.46 52.4 136.11 53.03 136.7C54.08 137.69 53.69 138.7 52.79 139.62L49.23 136.97C49.47 136.5 50.07 135.78 50.6 135.66V135.67Z" fill="#FFC70F"/>
<path d="M146.454 183.759H219.684V110.529L146.454 110.529V183.759Z" fill="#DC85B7"/>
<path d="M73.2185 183.759H146.448V110.529L73.2185 110.529L73.2185 183.759Z" fill="#FFC70F"/>
<path d="M111.44 145.32L122.12 126.81C122.3 126.91 122.48 127.02 122.66 127.12L111.98 145.63C111.81 145.51 111.63 145.41 111.44 145.32Z" fill="#6B308D"/>
<path d="M110.83 145.1L118.14 125.02C118.34 125.09 118.53 125.16 118.73 125.23L111.42 145.31C111.23 145.22 111.03 145.15 110.83 145.1Z" fill="#6B308D"/>
<path d="M110.18 144.98L113.89 123.94C114.1 123.97 114.3 124.01 114.51 124.05L110.8 145.09C110.6 145.04 110.39 145 110.18 144.98Z" fill="#6B308D"/>
<path d="M108.88 145.09L105.17 124.05C105.38 124.01 105.58 123.97 105.79 123.94L109.5 144.98C109.29 145 109.08 145.04 108.88 145.09Z" fill="#6B308D"/>
<path d="M112.51 146.08L128.87 132.35C129.01 132.51 129.15 132.67 129.28 132.83L112.91 146.57C112.79 146.4 112.66 146.24 112.51 146.09V146.08Z" fill="#6B308D"/>
<path d="M113.26 147.15L133.34 139.84C133.41 140.04 133.48 140.23 133.55 140.43L113.47 147.74C113.42 147.54 113.34 147.34 113.26 147.15Z" fill="#6B308D"/>
<path d="M112.93 146.58L131.44 135.9C131.55 136.08 131.65 136.26 131.75 136.44L113.24 147.12C113.15 146.93 113.05 146.75 112.93 146.58Z" fill="#6B308D"/>
<path d="M107.19 146.05L93.46 129.69C93.62 129.55 93.78 129.42 93.94 129.28L107.68 145.65C107.51 145.77 107.35 145.9 107.2 146.05H107.19Z" fill="#6B308D"/>
<path d="M106.21 147.74L86.1301 140.43C86.2001 140.23 86.2701 140.04 86.3401 139.84L106.42 147.15C106.33 147.34 106.26 147.54 106.21 147.74Z" fill="#6B308D"/>
<path d="M108.26 145.31L100.95 125.23C101.15 125.16 101.34 125.09 101.54 125.02L108.85 145.1C108.65 145.15 108.45 145.23 108.26 145.31Z" fill="#6B308D"/>
<path d="M106.43 147.13L87.9199 136.45C88.0199 136.27 88.1299 136.09 88.2299 135.91L106.74 146.59C106.62 146.76 106.52 146.94 106.43 147.13Z" fill="#6B308D"/>
<path d="M106.09 148.39L85.05 144.68C85.08 144.47 85.1201 144.27 85.1601 144.06L106.2 147.77C106.15 147.97 106.11 148.18 106.09 148.39Z" fill="#6B308D"/>
<path d="M106.76 146.56L90.3899 132.82C90.5199 132.66 90.6599 132.5 90.7999 132.34L107.16 146.07C107.01 146.22 106.88 146.38 106.76 146.55V146.56Z" fill="#6B308D"/>
<path d="M107.69 145.64L97.01 127.13C97.19 127.02 97.37 126.92 97.55 126.82L108.23 145.33C108.04 145.42 107.86 145.52 107.69 145.64Z" fill="#6B308D"/>
<path d="M113.48 147.77L134.52 144.06C134.56 144.27 134.6 144.47 134.63 144.68L113.59 148.39C113.57 148.18 113.53 147.97 113.48 147.77Z" fill="#6B308D"/>
<path d="M109.5 152.48L105.79 173.52C105.58 173.49 105.38 173.45 105.17 173.41L108.88 152.37C109.08 152.42 109.29 152.46 109.5 152.48Z" fill="#6B308D"/>
<path d="M108.24 152.14L97.56 170.65C97.38 170.55 97.2 170.44 97.02 170.34L107.7 151.83C107.87 151.95 108.05 152.05 108.24 152.14Z" fill="#6B308D"/>
<path d="M107.67 151.81L93.93 168.18C93.77 168.05 93.61 167.91 93.45 167.77L107.18 151.41C107.33 151.56 107.49 151.69 107.66 151.81H107.67Z" fill="#6B308D"/>
<path d="M107.16 151.38L90.7999 165.11C90.6599 164.95 90.5199 164.79 90.3899 164.63L106.76 150.89C106.88 151.06 107.01 151.22 107.16 151.37V151.38Z" fill="#6B308D"/>
<path d="M108.85 152.36L101.54 172.44C101.34 172.37 101.15 172.3 100.95 172.23L108.26 152.15C108.45 152.24 108.65 152.31 108.85 152.36Z" fill="#6B308D"/>
<path d="M106.07 148.73C106.07 148.84 106.07 148.94 106.09 149.04H84.73C84.73 148.93 84.73 148.83 84.73 148.73C84.73 148.62 84.73 148.52 84.73 148.42H106.09C106.09 148.52 106.07 148.63 106.07 148.73Z" fill="#6B308D"/>
<path d="M106.2 149.69L85.1601 153.4C85.1201 153.19 85.08 152.99 85.05 152.78L106.09 149.07C106.11 149.28 106.15 149.49 106.2 149.69Z" fill="#6B308D"/>
<path d="M106.75 150.88L88.2399 161.56C88.1299 161.38 88.0299 161.2 87.9299 161.02L106.44 150.34C106.53 150.53 106.63 150.71 106.75 150.88Z" fill="#6B308D"/>
<path d="M106.42 150.31L86.3401 157.62C86.2701 157.42 86.2001 157.23 86.1301 157.03L106.21 149.72C106.26 149.92 106.34 150.12 106.42 150.31Z" fill="#6B308D"/>
<path d="M112.49 151.4L126.22 167.76C126.06 167.9 125.9 168.04 125.74 168.17L112 151.8C112.17 151.68 112.33 151.55 112.48 151.4H112.49Z" fill="#6B308D"/>
<path d="M113.25 150.33L131.76 161.01C131.66 161.19 131.55 161.37 131.45 161.55L112.94 150.87C113.06 150.7 113.16 150.52 113.25 150.33Z" fill="#6B308D"/>
<path d="M112.92 150.9L129.29 164.64C129.16 164.8 129.02 164.96 128.88 165.12L112.52 151.39C112.67 151.24 112.8 151.08 112.92 150.91V150.9Z" fill="#6B308D"/>
<path d="M113.47 149.72L133.55 157.03C133.48 157.23 133.41 157.42 133.34 157.62L113.26 150.31C113.35 150.12 113.42 149.92 113.47 149.72Z" fill="#6B308D"/>
<path d="M113.59 149.07L134.63 152.78C134.6 152.99 134.56 153.19 134.52 153.4L113.48 149.69C113.53 149.49 113.57 149.28 113.59 149.07Z" fill="#6B308D"/>
<path d="M110.8 152.37L114.51 173.41C114.3 173.45 114.1 173.49 113.89 173.52L110.18 152.48C110.39 152.46 110.6 152.42 110.8 152.37Z" fill="#6B308D"/>
<path d="M111.42 152.15L118.73 172.23C118.53 172.3 118.34 172.37 118.14 172.44L110.83 152.36C111.03 152.31 111.23 152.23 111.42 152.15Z" fill="#6B308D"/>
<path d="M111.99 151.82L122.67 170.33C122.49 170.44 122.31 170.54 122.13 170.64L111.45 152.13C111.64 152.04 111.82 151.94 111.99 151.82Z" fill="#6B308D"/>
<path d="M112.01 145.65L125.75 129.28C125.91 129.41 126.07 129.55 126.23 129.69L112.5 146.05C112.35 145.9 112.19 145.77 112.02 145.65H112.01Z" fill="#6B308D"/>
<path d="M109.84 144.96C109.73 144.96 109.63 144.96 109.53 144.98V123.62C109.64 123.62 109.74 123.62 109.84 123.62C109.94 123.62 110.05 123.62 110.15 123.62V144.98C110.05 144.98 109.94 144.96 109.84 144.96Z" fill="#6B308D"/>
<path d="M109.84 152.5C109.95 152.5 110.05 152.5 110.15 152.48V173.84C110.05 173.84 109.94 173.84 109.84 173.84C109.74 173.84 109.63 173.84 109.53 173.84V152.48C109.63 152.48 109.74 152.5 109.84 152.5Z" fill="#6B308D"/>
<path d="M113.61 148.73C113.61 148.62 113.61 148.52 113.59 148.42H134.95C134.95 148.53 134.95 148.63 134.95 148.73C134.95 148.84 134.95 148.94 134.95 149.04H113.59C113.59 148.94 113.61 148.83 113.61 148.73Z" fill="#6B308D"/>
<path d="M206.387 123.562H208.007V121.942H206.387V123.562Z" fill="#3A1D5A"/>
<path d="M179.402 123.562H181.022V121.942H179.402V123.562Z" fill="#3A1D5A"/>
<path d="M152.418 123.562H154.038V121.942H152.418V123.562Z" fill="#3A1D5A"/>
<path d="M207.35 173.172H208.85V171.672H207.35V173.172Z" fill="#3A1D5A"/>
<path d="M182.313 173.172H183.813V171.672H182.313V173.172Z" fill="#3A1D5A"/>
<path d="M157.287 173.172H158.787V171.672H157.287V173.172Z" fill="#3A1D5A"/>
<path d="M73.09 31.0601H0V110.53H73.09V31.0601Z" fill="#FFC70F"/>
<path d="M11.3899 95.95C19.4499 87.9 27.4599 82.51 24.4299 95.95C34.4099 82.51 38.7499 82.46 48.6499 95.95C45.6699 82.46 53.5899 87.7999 61.6899 95.95C53.5899 87.7999 48.2199 79.8299 61.6899 82.9099C48.2199 72.9299 48.1999 68.6199 61.6899 58.6899C48.1999 61.7399 53.5399 53.8099 61.6899 45.6499C53.5399 53.8099 45.6299 59.1399 48.6499 45.6499C38.7399 59.1399 34.4199 59.0899 24.4299 45.6499C27.4899 59.0899 19.4899 53.7199 11.3899 45.6499C19.4999 53.7199 24.8599 61.6599 11.3899 58.6899C24.8599 68.6099 24.8299 72.9599 11.3899 82.9099C24.8299 79.9199 19.4499 87.9 11.3899 95.95Z" fill="#8552A0"/>
</svg>
